<mxfile host="app.diagrams.net" agent="Mozilla/5.0 (Windows NT 10.0; Win64; x64) AppleWebKit/537.36 (KHTML, like Gecko) Chrome/141.0.0.0 Safari/537.36" version="28.2.7">
  <diagram name="第 1 页" id="ymwS_IY8MIXRyYueqAV2">
    <mxGraphModel dx="421" dy="254" grid="1" gridSize="10" guides="1" tooltips="1" connect="1" arrows="1" fold="1" page="1" pageScale="1" pageWidth="1169" pageHeight="827" math="0" shadow="0">
      <root>
        <mxCell id="0" />
        <mxCell id="1" parent="0" />
        <mxCell id="_RP0dMVc5jquQAwwALMM-17" value="" style="endArrow=classic;html=1;rounded=0;strokeColor=default;arcSize=20;jumpSize=6;" parent="1" edge="1">
          <mxGeometry width="50" height="50" relative="1" as="geometry">
            <mxPoint x="587" y="449" as="sourcePoint" />
            <mxPoint x="587" y="502" as="targetPoint" />
          </mxGeometry>
        </mxCell>
        <mxCell id="fuRvOFpUO8J76H4Moy8X-2" value="" style="shape=parallelogram;perimeter=parallelogramPerimeter;whiteSpace=wrap;html=1;fixedSize=1;direction=south;flipH=1;fillColor=#808080;size=40;shadow=1;rounded=0;movable=1;resizable=1;rotatable=1;deletable=1;editable=1;locked=0;connectable=1;" parent="1" vertex="1">
          <mxGeometry x="330" y="330.5" width="40" height="150" as="geometry" />
        </mxCell>
        <mxCell id="fuRvOFpUO8J76H4Moy8X-3" value="" style="shape=cube;whiteSpace=wrap;html=1;boundedLbl=1;backgroundOutline=1;darkOpacity=0.05;darkOpacity2=0.1;flipH=1;size=12;movable=1;resizable=1;rotatable=1;deletable=1;editable=1;locked=0;connectable=1;fillColor=default;shadow=1;" parent="1" vertex="1">
          <mxGeometry x="348" y="360" width="251" height="91" as="geometry" />
        </mxCell>
        <mxCell id="fuRvOFpUO8J76H4Moy8X-4" value="" style="endArrow=classic;html=1;rounded=0;" parent="1" edge="1">
          <mxGeometry width="50" height="50" relative="1" as="geometry">
            <mxPoint x="593" y="445" as="sourcePoint" />
            <mxPoint x="593" y="497" as="targetPoint" />
          </mxGeometry>
        </mxCell>
        <mxCell id="fuRvOFpUO8J76H4Moy8X-5" value="" style="endArrow=classic;html=1;rounded=0;startFill=1;" parent="1" edge="1">
          <mxGeometry width="50" height="50" relative="1" as="geometry">
            <mxPoint x="599" y="439" as="sourcePoint" />
            <mxPoint x="599" y="492" as="targetPoint" />
          </mxGeometry>
        </mxCell>
        <mxCell id="fuRvOFpUO8J76H4Moy8X-6" value="" style="endArrow=classic;html=1;rounded=0;strokeColor=default;curved=0;shadow=0;" parent="1" edge="1">
          <mxGeometry width="50" height="50" relative="1" as="geometry">
            <mxPoint x="376" y="431" as="sourcePoint" />
            <mxPoint x="403" y="431" as="targetPoint" />
          </mxGeometry>
        </mxCell>
        <mxCell id="fuRvOFpUO8J76H4Moy8X-7" value="" style="endArrow=classic;html=1;rounded=0;strokeColor=default;curved=0;shadow=0;" parent="1" edge="1">
          <mxGeometry width="50" height="50" relative="1" as="geometry">
            <mxPoint x="376" y="431" as="sourcePoint" />
            <mxPoint x="376" y="405" as="targetPoint" />
          </mxGeometry>
        </mxCell>
        <mxCell id="fuRvOFpUO8J76H4Moy8X-8" value="" style="endArrow=classic;html=1;rounded=0;strokeColor=default;curved=0;shadow=0;entryX=0.909;entryY=0.135;entryDx=0;entryDy=0;entryPerimeter=0;" parent="1" edge="1">
          <mxGeometry width="50" height="50" relative="1" as="geometry">
            <mxPoint x="376" y="431" as="sourcePoint" />
            <mxPoint x="358" y="449" as="targetPoint" />
          </mxGeometry>
        </mxCell>
        <mxCell id="fuRvOFpUO8J76H4Moy8X-11" value="x" style="text;html=1;align=center;verticalAlign=middle;resizable=0;points=[];autosize=1;strokeColor=none;fillColor=none;fontSize=10;" parent="1" vertex="1">
          <mxGeometry x="388" y="410" width="30" height="30" as="geometry" />
        </mxCell>
        <mxCell id="fuRvOFpUO8J76H4Moy8X-12" value="y" style="text;html=1;align=center;verticalAlign=middle;resizable=0;points=[];autosize=1;strokeColor=none;fillColor=none;fontSize=10;" parent="1" vertex="1">
          <mxGeometry x="370" y="390" width="30" height="30" as="geometry" />
        </mxCell>
        <mxCell id="fuRvOFpUO8J76H4Moy8X-13" value="z" style="text;html=1;align=center;verticalAlign=middle;resizable=0;points=[];autosize=1;strokeColor=none;fillColor=none;fontSize=10;" parent="1" vertex="1">
          <mxGeometry x="348" y="420" width="30" height="30" as="geometry" />
        </mxCell>
      </root>
    </mxGraphModel>
  </diagram>
</mxfile>
